<?xml version="1.0" encoding="UTF-8"?>
<svg version="1.1" xmlns="http://www.w3.org/2000/svg" width="150" height="182">
<path d="M0 0 C2.47335638 0.05492008 4.94333176 0.06152635 7.41723633 0.06079102 C18.1487647 0.13282013 28.20212015 0.56708089 36.91137695 7.61743164 C41.02570617 11.84604778 42.80438724 16.03327641 42.98168945 21.97290039 C42.59630217 29.28392393 40.3635083 35.4695111 34.87231445 40.47680664 C32.31378834 42.43059022 29.79190102 44.17716961 26.91137695 45.61743164 C27.68481445 45.80176758 28.45825195 45.98610352 29.25512695 46.17602539 C37.36508625 48.43436802 42.45640594 51.34469146 46.91137695 58.61743164 C50.53655911 66.6906169 50.81913257 74.87713127 48.03637695 83.25024414 C43.18821962 94.25960141 33.77009437 100.27394467 22.91137695 104.61743164 C8.19491803 110.27896064 -7.59445769 109.01083818 -23.08862305 108.61743164 C-22.44924805 107.73055664 -21.80987305 106.84368164 -21.15112305 105.92993164 C-17.85686398 100.63915193 -17.8996608 95.5283646 -17.71557617 89.41821289 C-17.68777573 88.60621429 -17.65997528 87.7942157 -17.6313324 86.95761108 C-17.57168533 85.20018514 -17.51393343 83.44269407 -17.45787048 81.68515015 C-17.36899447 78.90242329 -17.27495434 76.11991308 -17.17956543 73.33740234 C-16.97799601 67.43089486 -16.78284688 61.52418464 -16.58862305 55.61743164 C-16.36352126 48.77161556 -16.1357823 41.92590901 -15.90110779 35.08041382 C-15.8086015 32.34130604 -15.72104566 29.60206842 -15.63366699 26.86279297 C-15.57657799 25.18073717 -15.51925799 23.49868918 -15.46166992 21.81665039 C-15.43878403 21.05701996 -15.41589813 20.29738953 -15.39231873 19.51473999 C-15.25936488 15.78346839 -14.96036704 12.25219109 -14.08862305 8.61743164 C-15.07862305 8.94743164 -16.06862305 9.27743164 -17.08862305 9.61743164 C-18.98333121 9.68598114 -20.88030644 9.70223537 -22.77612305 9.67993164 C-23.76999023 9.6709082 -24.76385742 9.66188477 -25.7878418 9.65258789 C-26.92672852 9.63518555 -26.92672852 9.63518555 -28.08862305 9.61743164 C-26.58820614 5.11618092 -23.76287096 4.02694666 -19.66333008 1.88745117 C-13.23476741 -0.39648429 -6.75529533 -0.15500876 0 0 Z M-0.08862305 8.61743164 C-0.83439494 18.05030758 -1.30383762 27.44734948 -1.5534668 36.90649414 C-1.6119046 38.90215307 -1.67035249 40.89781176 -1.72937107 42.8934536 C-1.87193541 47.73519585 -2.00889249 52.5770746 -2.13818359 57.41918945 C-2.2116564 60.16066331 -2.28959158 62.90194443 -2.37220764 65.64315796 C-2.4490874 68.20076565 -2.51968005 70.7585733 -2.58274841 73.31655884 C-2.88219367 82.91484658 -3.57625091 92.58561756 -7.08862305 101.61743164 C-3.58963494 101.84582276 -0.08956413 102.04645021 3.41137695 102.24243164 C4.88477539 102.33911133 4.88477539 102.33911133 6.38793945 102.43774414 C13.37957064 102.81063114 19.4372753 102.71805124 25.59887695 98.99243164 C31.95788097 92.46156265 34.51286623 85.63866671 35.22387695 76.67993164 C35.01941294 70.55803851 33.39387461 64.83283778 29.22387695 60.24243164 C21.93347151 53.83893684 13.16341437 53.99427024 3.91137695 53.61743164 C5.23202148 52.92907227 5.23202148 52.92907227 6.5793457 52.22680664 C7.74079102 51.61321289 8.90223633 50.99961914 10.09887695 50.36743164 C11.24743164 49.76415039 12.39598633 49.16086914 13.5793457 48.53930664 C20.06277447 44.79974398 24.27341365 40.98391669 26.50512695 33.67211914 C27.48171342 28.7328453 27.43534424 24.13111491 25.78637695 19.36743164 C21.42575203 12.97184841 17.09239856 11.02174738 9.7902832 9.09790039 C6.46099493 8.54226612 3.28163317 8.58694841 -0.08862305 8.61743164 Z " fill="#A923E0" transform="translate(88.088623046875,55.382568359375)"/>
<path d="M0 0 C0.89783203 -0.01160156 1.79566406 -0.02320312 2.72070312 -0.03515625 C9.13604894 -0.00695693 14.57102773 0.63352773 19.3125 5.375 C19.19052385 8.39230481 18.24529069 9.4467389 16.16796875 11.6640625 C15.28753906 12.43492188 14.40710938 13.20578125 13.5 14 C12.62730469 14.77601562 11.75460938 15.55203125 10.85546875 16.3515625 C7.53743752 18.99171638 5.58201411 20.375 1.3125 20.375 C1.6425 19.055 1.9725 17.735 2.3125 16.375 C-10.17038455 13.39189245 -22.16727403 10.94135626 -33.9375 17.5 C-39.41286035 21.29231545 -42.10115537 25.29496617 -43.3515625 31.86328125 C-43.9107075 37.11812589 -43.9107075 37.11812589 -43.6875 42.375 C-41.9086954 44.64346234 -41.9086954 44.64346234 -39.6875 46.375 C-38.86844195 47.45338364 -38.05572139 48.53661569 -37.25 49.625 C-32.48452801 55.31401307 -25.25468053 59.09140973 -18.6875 62.375 C-18.66037649 64.77091038 -18.6406018 67.16650957 -18.625 69.5625 C-18.61662109 70.23603516 -18.60824219 70.90957031 -18.59960938 71.60351562 C-18.58143462 75.32934131 -18.79450608 78.7538042 -19.6875 82.375 C-52.1834359 69.79798748 -52.1834359 69.79798748 -59.81640625 55.21875 C-62.40709522 48.62004445 -62.15541617 42.47004511 -59.77734375 35.8359375 C-52.48145573 19.85917933 -36.69315228 9.40529857 -20.6875 3.375 C-13.6842873 0.83726109 -7.43482091 -0.09732856 0 0 Z " fill="#A81EE2" transform="translate(86.6875,25.625)"/>
<path d="M0 0 C1.11283607 -0.00287018 1.11283607 -0.00287018 2.24815369 -0.00579834 C3.81233053 -0.00715619 5.37651879 -0.00348768 6.94067383 0.00488281 C9.33505507 0.01560356 11.72868865 0.00496659 14.12304688 -0.0078125 C15.6445329 -0.00649113 17.16601847 -0.00392921 18.6875 0 C19.40317642 -0.00404846 20.11885284 -0.00809692 20.85621643 -0.01226807 C24.54915939 0.02260702 26.12050426 0.16106534 29.27734375 2.265625 C28.28734375 2.265625 27.29734375 2.265625 26.27734375 2.265625 C26.77234375 4.245625 26.77234375 4.245625 27.27734375 6.265625 C26.58769531 6.10964844 25.89804688 5.95367187 25.1875 5.79296875 C18.82091577 4.47423868 13.69379317 4.21374805 7.27734375 5.265625 C7.60734375 5.595625 7.93734375 5.925625 8.27734375 6.265625 C8.37804623 9.19192072 8.4160171 12.08952839 8.40234375 15.015625 C8.40814453 16.23378906 8.40814453 16.23378906 8.4140625 17.4765625 C8.41277344 18.26804687 8.41148438 19.05953125 8.41015625 19.875 C8.40902832 20.59655273 8.40790039 21.31810547 8.40673828 22.06152344 C8.27734375 24.265625 8.27734375 24.265625 7.78109741 26.588974 C7.28654602 29.21672952 7.12710992 31.62577858 7.08789062 34.29614258 C7.0711731 35.27098099 7.05445557 36.2458194 7.03723145 37.25019836 C7.02365601 38.29298447 7.01008057 39.33577057 6.99609375 40.41015625 C6.97768433 41.49391037 6.9592749 42.57766449 6.94030762 43.69425964 C6.88166716 47.15549391 6.8288297 50.61677737 6.77734375 54.078125 C6.70937848 58.62639893 6.63564744 63.17452827 6.55859375 67.72265625 C6.54501831 68.75936966 6.53144287 69.79608307 6.51745605 70.86421204 C6.42325035 76.41085648 6.08510395 81.77604417 5.27734375 87.265625 C3.62734375 86.935625 1.97734375 86.605625 0.27734375 86.265625 C-0.05265625 90.225625 -0.38265625 94.185625 -0.72265625 98.265625 C2.26102101 99.26018409 4.47776295 99.46122132 7.6015625 99.58203125 C8.62958984 99.62392578 9.65761719 99.66582031 10.71679688 99.70898438 C11.78865234 99.74830078 12.86050781 99.78761719 13.96484375 99.828125 C15.04830078 99.87130859 16.13175781 99.91449219 17.24804688 99.95898438 C19.92435166 100.06509338 22.60074901 100.16714861 25.27734375 100.265625 C21.43874109 102.82469344 19.12280997 102.35350434 14.65234375 102.140625 C12.00705821 102.0773362 12.00705821 102.0773362 9.27734375 104.265625 C7.3762207 104.49267578 7.3762207 104.49267578 5.265625 104.4609375 C4.12963867 104.45126953 4.12963867 104.45126953 2.97070312 104.44140625 C1.79217773 104.41626953 1.79217773 104.41626953 0.58984375 104.390625 C-0.20744141 104.38160156 -1.00472656 104.37257813 -1.82617188 104.36328125 C-3.79179525 104.33974085 -5.757264 104.30387047 -7.72265625 104.265625 C-7.72265625 102.285625 -7.72265625 100.305625 -7.72265625 98.265625 C-7.06265625 98.265625 -6.40265625 98.265625 -5.72265625 98.265625 C-5.72789307 97.42902344 -5.73312988 96.59242188 -5.73852539 95.73046875 C-5.75568638 92.59196228 -5.76816398 89.45347993 -5.77758789 86.31494141 C-5.78502046 84.30239259 -5.79773454 82.28986551 -5.81054688 80.27734375 C-5.81376953 78.99472656 -5.81699219 77.71210938 -5.8203125 76.390625 C-5.82554932 75.21757812 -5.83078613 74.04453125 -5.83618164 72.8359375 C-5.72265625 69.265625 -5.72265625 69.265625 -5.22265625 65.63476562 C-4.44349736 59.85562437 -4.59961946 54.05491261 -4.625 48.234375 C-4.62712242 46.3868866 -4.62712242 46.3868866 -4.62928772 44.5020752 C-4.63486013 40.58989984 -4.64740758 36.67778289 -4.66015625 32.765625 C-4.66574143 30.1041675 -4.66973709 27.44271056 -4.67382812 24.78125 C-4.68482053 18.27602193 -4.70153111 11.77082764 -4.72265625 5.265625 C-7.03265625 4.935625 -9.34265625 4.605625 -11.72265625 4.265625 C-11.72265625 3.605625 -11.72265625 2.945625 -11.72265625 2.265625 C-7.99130609 -0.15269816 -4.29498195 -0.02436491 0 0 Z " fill="#A708E8" transform="translate(78.72265625,58.734375)"/>
<path d="M0 0 C0.66 0 1.32 0 2 0 C2.33 1.65 2.66 3.3 3 5 C3.99 5.33 4.98 5.66 6 6 C6 6.66 6 7.32 6 8 C6.86625 8.2475 7.7325 8.495 8.625 8.75 C13.91082655 10.70771354 17.94889205 13.95267421 22.3125 17.4375 C26.61843247 20.83537869 31.12723627 23.50026069 36 26 C36.02712351 28.39591038 36.0468982 30.79150957 36.0625 33.1875 C36.07087891 33.86103516 36.07925781 34.53457031 36.08789062 35.22851562 C36.10606538 38.95434131 35.89299392 42.3788042 35 46 C23.75689415 41.64854253 12.37861462 36.68579414 3 29 C2.44441406 28.54496094 1.88882813 28.08992188 1.31640625 27.62109375 C-0.44132276 25.45653132 -0.72152395 23.6071331 -1.1875 20.875 C-1.34605469 19.98554687 -1.50460938 19.09609375 -1.66796875 18.1796875 C-2 16 -2 16 -2 15 C-2.66 14.01 -3.32 13.02 -4 12 C-4.53901205 7.95740965 -4.13021341 6.23438414 -2.125 2.625 C-1.42375 1.75875 -0.7225 0.8925 0 0 Z " fill="#A813E5" transform="translate(32,62)"/>
<path d="M0 0 C0 2.31 0 4.62 0 7 C10.85192683 12.82689667 18.78592051 14.18050364 31 14 C31 17.3 31 20.6 31 24 C29.22934889 24.64633275 27.45847247 25.2920483 25.6875 25.9375 C24.70136719 26.29714844 23.71523438 26.65679687 22.69921875 27.02734375 C11.17065578 31.18163055 -0.33411796 28.84039913 -11.37109375 23.94921875 C-14.46589886 22.28278523 -16.02618052 20.96072923 -18 18 C-17.93418442 14.37415987 -17.11245981 13.12231167 -14.63671875 10.4296875 C-13.66347656 9.58664063 -12.69023437 8.74359375 -11.6875 7.875 C-10.72199219 7.02679688 -9.75648437 6.17859375 -8.76171875 5.3046875 C-2.40508475 0 -2.40508475 0 0 0 Z " fill="#A709E8" transform="translate(34,138)"/>
<path d="M0 0 C0.33 0 0.66 0 1 0 C1.02542332 7.82876896 1.0428977 15.65752721 1.05493164 23.48632812 C1.05938363 26.14780621 1.06676643 28.80923013 1.07543945 31.47070312 C1.08761354 35.30339232 1.09325318 39.13604495 1.09765625 42.96875 C1.10281754 44.15239136 1.10797882 45.33603271 1.11329651 46.55554199 C1.11369617 52.48475389 0.82995036 58.13354478 0 64 C-0.13649108 66.37341923 -0.2421506 68.74881929 -0.31640625 71.125 C-0.35830078 72.40761719 -0.40019531 73.69023437 -0.44335938 75.01171875 C-0.48267578 76.32785156 -0.52199219 77.64398438 -0.5625 79 C-0.60578135 80.36068789 -0.64939839 81.72136515 -0.69335938 83.08203125 C-0.79886683 86.38793157 -0.90098256 89.69389999 -1 93 C-1.66 93 -2.32 93 -3 93 C-3 94.98 -3 96.96 -3 99 C-0.22829605 98.88613541 2.54178046 98.75939222 5.3125 98.625 C6.09818359 98.5940625 6.88386719 98.563125 7.69335938 98.53125 C8.45068359 98.49257812 9.20800781 98.45390625 9.98828125 98.4140625 C10.68477783 98.3826416 11.38127441 98.3512207 12.09887695 98.31884766 C14.32532739 98.07881747 14.32532739 98.07881747 17 96 C19.48046875 95.8046875 19.48046875 95.8046875 22.1875 95.875 C23.08855469 95.89304687 23.98960938 95.91109375 24.91796875 95.9296875 C25.60503906 95.95289063 26.29210937 95.97609375 27 96 C23.72847382 95.89013032 20.45809886 95.7595003 17.1875 95.625 C16.25873047 95.5940625 15.32996094 95.563125 14.37304688 95.53125 C13.48037109 95.49257812 12.58769531 95.45390625 11.66796875 95.4140625 C10.43469849 95.36693115 10.43469849 95.36693115 9.17651367 95.31884766 C7 95 7 95 4 93 C3.671875 90.6875 3.671875 90.6875 3.75 88 C3.76546875 87.113125 3.7809375 86.22625 3.796875 85.3125 C4 83 4 83 5 81 C6.32 81 7.64 81 9 81 C10.06630413 74.84500762 10.19997021 68.79266989 10.28125 62.5546875 C10.29965942 61.46664825 10.31806885 60.37860901 10.33703613 59.25759888 C10.41535141 54.62348796 10.48346181 49.98924114 10.55224609 45.35498047 C10.60406249 41.96314543 10.66126123 38.57143037 10.71875 35.1796875 C10.73232544 34.13376434 10.74590088 33.08784119 10.7598877 32.01022339 C10.77660522 31.03215729 10.79332275 30.05409119 10.81054688 29.04638672 C10.82933899 27.76234451 10.82933899 27.76234451 10.84851074 26.45236206 C11.00660387 23.89309419 11.44138147 21.49991921 12 19 C12.33 19 12.66 19 13 19 C13.09654482 33.89909354 13.16826412 48.79560395 12.625 63.6875 C12.59414307 64.65743896 12.56328613 65.62737793 12.53149414 66.62670898 C11.75816627 85.21390975 11.75816627 85.21390975 7 93 C10.49992803 93.05869332 13.9997272 93.09382709 17.5 93.125 C18.97339844 93.15013672 18.97339844 93.15013672 20.4765625 93.17578125 C30.91500441 93.31575335 30.91500441 93.31575335 39.8125 88.5 C40.534375 87.675 41.25625 86.85 42 86 C42.99 85.34 43.98 84.68 45 84 C45 84.66 45 85.32 45 86 C49.455 85.505 49.455 85.505 54 85 C46.30721336 94.34124092 32.7326147 98.7591685 21 100 C11.00543242 100.44663976 0.99794821 100.25385415 -9 100 C-8.360625 99.113125 -7.72125 98.22625 -7.0625 97.3125 C-3.76824094 92.02172029 -3.81103776 86.91093296 -3.62695312 80.80078125 C-3.58525246 79.58278336 -3.58525246 79.58278336 -3.54270935 78.34017944 C-3.48306229 76.5827535 -3.42531038 74.82526243 -3.36924744 73.06771851 C-3.28037143 70.28499165 -3.1863313 67.50248144 -3.09094238 64.7199707 C-2.88937297 58.81346322 -2.69422383 52.906753 -2.5 47 C-2.27489821 40.15418392 -2.04715925 33.30847737 -1.81248474 26.46298218 C-1.71997845 23.7238744 -1.63242262 20.98463678 -1.54504395 18.24536133 C-1.48795494 16.56330552 -1.43063494 14.88125754 -1.37304688 13.19921875 C-1.35016098 12.43958832 -1.32727509 11.67995789 -1.30369568 10.89730835 C-1.17074183 7.16603674 -0.87174399 3.63475945 0 0 Z " fill="#B249DD" transform="translate(74,64)"/>
<path d="M0 0 C2.23915424 0.73602403 2.23915424 0.73602403 5.0625 -0.5 C9.19331569 4.56963744 9.6358061 8.25298898 9.4375 14.6875 C9.43621094 15.49380859 9.43492187 16.30011719 9.43359375 17.13085938 C9.34462691 23.07680963 9.34462691 23.07680963 7.0625 26.5 C6.4025 26.5 5.7425 26.5 5.0625 26.5 C5.0625 28.15 5.0625 29.8 5.0625 31.5 C4.4025 31.5 3.7425 31.5 3.0625 31.5 C2.5675 33.975 2.5675 33.975 2.0625 36.5 C-2.3925 36.995 -2.3925 36.995 -6.9375 37.5 C-6.9375 36.84 -6.9375 36.18 -6.9375 35.5 C-6.2775 35.5 -5.6175 35.5 -4.9375 35.5 C-4.834375 34.860625 -4.73125 34.22125 -4.625 33.5625 C-4.398125 32.881875 -4.17125 32.20125 -3.9375 31.5 C-2.9475 31.17 -1.9575 30.84 -0.9375 30.5 C-0.9782666 29.88479492 -1.0190332 29.26958984 -1.06103516 28.63574219 C-1.23971977 25.84109375 -1.40127962 23.04570802 -1.5625 20.25 C-1.62695312 19.28191406 -1.69140625 18.31382812 -1.7578125 17.31640625 C-1.809375 16.38183594 -1.8609375 15.44726562 -1.9140625 14.484375 C-1.96643066 13.62553711 -2.01879883 12.76669922 -2.07275391 11.88183594 C-1.9245078 9.27120603 -1.26048482 7.73056144 0.0625 5.5 C-1.3915625 5.314375 -1.3915625 5.314375 -2.875 5.125 C-3.885625 4.91875 -4.89625 4.7125 -5.9375 4.5 C-6.2675 3.84 -6.5975 3.18 -6.9375 2.5 C-5.9475 2.5 -4.9575 2.5 -3.9375 2.5 C-3.9375 1.84 -3.9375 1.18 -3.9375 0.5 C-1.9375 -0.5 -1.9375 -0.5 0 0 Z " fill="#A807EA" transform="translate(125.9375,112.5)"/>
<path d="M0 0 C3.30081791 1.61897259 6.52557433 3.35924309 9.75 5.125 C11.22726563 5.93324219 11.22726563 5.93324219 12.734375 6.7578125 C13.48203125 7.16773437 14.2296875 7.57765625 15 8 C15.02712351 10.39591038 15.0468982 12.79150957 15.0625 15.1875 C15.07087891 15.86103516 15.07925781 16.53457031 15.08789062 17.22851562 C15.10606538 20.95434131 14.89299392 24.3788042 14 28 C9.3210904 26.20329871 4.7915585 24.11377765 0.25 22 C-0.52988281 21.64421875 -1.30976562 21.2884375 -2.11328125 20.921875 C-2.85449219 20.57640625 -3.59570312 20.2309375 -4.359375 19.875 C-5.03452148 19.56304687 -5.70966797 19.25109375 -6.40527344 18.9296875 C-8 18 -8 18 -9 16 C-6.69 16 -4.38 16 -2 16 C-2 15.34 -2 14.68 -2 14 C-2.66 14 -3.32 14 -4 14 C-3.34 12.68 -2.68 11.36 -2 10 C-0.68 10 0.64 10 2 10 C2.99 8.02 3.98 6.04 5 4 C4.360625 3.896875 3.72125 3.79375 3.0625 3.6875 C2.381875 3.460625 1.70125 3.23375 1 3 C0.67 2.01 0.34 1.02 0 0 Z " fill="#B024E8" transform="translate(53,80)"/>
<path d="M0 0 C1.32 0.66 2.64 1.32 4 2 C3.67 4.64 3.34 7.28 3 10 C3.433125 9.071875 3.433125 9.071875 3.875 8.125 C5 6 5 6 7 4 C7 4.99 7 5.98 7 7 C7.99 7 8.98 7 10 7 C11.97094808 11.92737019 12.1799928 15.78020872 12 21 C11.34 21 10.68 21 10 21 C10 22.65 10 24.3 10 26 C9.34 26.33 8.68 26.66 8 27 C8 27.99 8 28.98 8 30 C6.68 30.33 5.36 30.66 4 31 C4 31.99 4 32.98 4 34 C2.35 33.67 0.7 33.34 -1 33 C-1.33 33.66 -1.66 34.32 -2 35 C-1.125 30.25 -1.125 30.25 0 28 C-0.06323657 25.8930725 -0.19896608 23.78801289 -0.375 21.6875 C-0.46523437 20.55699219 -0.55546875 19.42648438 -0.6484375 18.26171875 C-0.9514138 15.45077198 -1.38945057 12.75782075 -2 10 C-3.32 9.67 -4.64 9.34 -6 9 C-6.33 7.35 -6.66 5.7 -7 4 C-5.0625 4.3125 -5.0625 4.3125 -3 5 C-2.67 5.99 -2.34 6.98 -2 8 C-1.855625 6.865625 -1.71125 5.73125 -1.5625 4.5625 C-1 1 -1 1 0 0 Z " fill="#A806EA" transform="translate(117,61)"/>
<path d="M0 0 C2.21129981 2.21129981 1.97986661 6.02529235 2 9 C0.64655911 17.34131505 -4.75889317 24.4870223 -11 30 C-11.66 30 -12.32 30 -13 30 C-12.67 20.1 -12.34 10.2 -12 0 C-7.33521145 -1.16619714 -4.6964175 -0.76990451 0 0 Z " fill="#A832DA" transform="translate(103,115)"/>
<path d="M0 0 C0.66 0 1.32 0 2 0 C2.33 1.65 2.66 3.3 3 5 C3.99 5.33 4.98 5.66 6 6 C6 6.66 6 7.32 6 8 C7.3303125 8.4021875 7.3303125 8.4021875 8.6875 8.8125 C11.76877548 9.91710819 14.26221405 11.22849144 17 13 C15.68 14.32 14.36 15.64 13 17 C13.33 17.99 13.66 18.98 14 20 C12.68 20 11.36 20 10 20 C10 19.01 10 18.02 10 17 C9.34 17 8.68 17 8 17 C8.33 17.598125 8.66 18.19625 9 18.8125 C10 21 10 21 10 24 C9.01 24 8.02 24 7 24 C6.67 24.99 6.34 25.98 6 27 C5.71125 26.360625 5.4225 25.72125 5.125 25.0625 C4.17176549 22.84793921 4.17176549 22.84793921 2 22 C1.67 22.66 1.34 23.32 1 24 C1.66 24 2.32 24 3 24 C2.67 24.66 2.34 25.32 2 26 C1.34 25.67 0.68 25.34 0 25 C-0.6328125 22.96875 -0.6328125 22.96875 -1.125 20.5 C-1.29257812 19.6853125 -1.46015625 18.870625 -1.6328125 18.03125 C-2 16 -2 16 -2 15 C-2.66 14.01 -3.32 13.02 -4 12 C-4.53901205 7.95740965 -4.13021341 6.23438414 -2.125 2.625 C-1.42375 1.75875 -0.7225 0.8925 0 0 Z " fill="#A909EA" transform="translate(32,62)"/>
<path d="M0 0 C1.04220703 -0.00483398 1.04220703 -0.00483398 2.10546875 -0.00976562 C6.47429835 0.03548591 10.06595462 0.71560284 14.125 2.3125 C13.795 4.6225 13.465 6.9325 13.125 9.3125 C12.135 9.3125 11.145 9.3125 10.125 9.3125 C9.795 10.6325 9.465 11.9525 9.125 13.3125 C6.23924181 12.91446439 5.30310487 12.52240931 3.375 10.25 C2.9625 9.610625 2.55 8.97125 2.125 8.3125 C2.125 9.3025 2.125 10.2925 2.125 11.3125 C-3.51155874 11.86240817 -6.36758305 10.49420608 -10.875 7.3125 C-11.8125 5.0625 -11.8125 5.0625 -11.875 3.3125 C-8.28782621 -0.20962142 -4.75858396 -0.10914183 0 0 Z " fill="#A807EA" transform="translate(87.875,27.6875)"/>
<path d="M0 0 C2.47335638 0.05492008 4.94333176 0.06152635 7.41723633 0.06079102 C15.64605973 0.11755436 23.18864762 0.42422698 30.91137695 3.61743164 C30.91137695 3.94743164 30.91137695 4.27743164 30.91137695 4.61743164 C30.31891174 4.61521103 29.72644653 4.61299042 29.11602783 4.61070251 C22.95178836 4.58858557 16.78756015 4.5734982 10.62329102 4.5625 C8.32250511 4.55747007 6.0217224 4.5506454 3.72094727 4.54199219 C0.41462413 4.52986805 -2.89165675 4.52418992 -6.19799805 4.51977539 C-7.22729431 4.51461411 -8.25659058 4.50945282 -9.31707764 4.50413513 C-10.27777161 4.5040596 -11.23846558 4.50398407 -12.22827148 4.50390625 C-13.07210388 4.50168564 -13.91593628 4.49946503 -14.78533936 4.49717712 C-17.01771431 4.61372949 -18.9472164 4.99516311 -21.08862305 5.61743164 C-21.08862305 6.27743164 -21.08862305 6.93743164 -21.08862305 7.61743164 C-18.77862305 7.61743164 -16.46862305 7.61743164 -14.08862305 7.61743164 C-17.50956546 9.89805992 -18.77049527 9.83668171 -22.77612305 9.74243164 C-24.26692383 9.71536133 -24.26692383 9.71536133 -25.7878418 9.68774414 C-26.54709961 9.66454102 -27.30635742 9.64133789 -28.08862305 9.61743164 C-26.58820614 5.11618092 -23.76287096 4.02694666 -19.66333008 1.88745117 C-13.23476741 -0.39648429 -6.75529533 -0.15500876 0 0 Z " fill="#B546E2" transform="translate(88.088623046875,55.382568359375)"/>
<path d="M0 0 C5.61 0 11.22 0 17 0 C17 3.3 17 6.6 17 10 C15.22934889 10.64633275 13.45847247 11.2920483 11.6875 11.9375 C10.70136719 12.29714844 9.71523438 12.65679687 8.69921875 13.02734375 C-2.24782391 16.97208126 -12.23401749 14.80139073 -23 11 C-24.34872483 10.36504838 -25.69057534 9.71248107 -27 9 C-26.34 8.67 -25.68 8.34 -25 8 C-23.7934375 8.433125 -23.7934375 8.433125 -22.5625 8.875 C-18.43615459 10.17805644 -14.59303663 10.46955628 -10.29296875 10.75390625 C-8 11 -8 11 -7 12 C-4.67182036 12.36760731 -2.3381615 12.70241581 0 13 C-0.33 11.68 -0.66 10.36 -1 9 C-0.34 8.67 0.32 8.34 1 8 C0.67 7.34 0.34 6.68 0 6 C1.65 6 3.3 6 5 6 C5 9 5 9 4 11 C5.98 11 7.96 11 10 11 C10 10.34 10 9.68 10 9 C11.65 9 13.3 9 15 9 C15 7.02 15 5.04 15 3 C10.05 3 5.1 3 0 3 C0 2.01 0 1.02 0 0 Z " fill="#B134E7" transform="translate(48,152)"/>
<path d="M0 0 C0 2.31 0 4.62 0 7 C3.96 8.98 7.92 10.96 12 13 C12 13.33 12 13.66 12 14 C10.56163249 13.88541307 9.12429034 13.75790884 7.6875 13.625 C6.88699219 13.55539063 6.08648437 13.48578125 5.26171875 13.4140625 C3 13 3 13 0 11 C-0.33 11.66 -0.66 12.32 -1 13 C-1.66 12.7525 -2.32 12.505 -3 12.25 C-6.88649142 11.92612572 -8.90213522 13.21248545 -12.23046875 15.08984375 C-14 16 -14 16 -16 16 C-15.67 17.65 -15.34 19.3 -15 21 C-16.5625 19.8125 -16.5625 19.8125 -18 18 C-17.87742806 14.40251361 -17.09798465 13.10656843 -14.63671875 10.4296875 C-13.66347656 9.58664063 -12.69023437 8.74359375 -11.6875 7.875 C-10.72199219 7.02679688 -9.75648437 6.17859375 -8.76171875 5.3046875 C-2.40508475 0 -2.40508475 0 0 0 Z " fill="#AD32E2" transform="translate(34,138)"/>
<path d="M0 0 C9.41002278 -0.18451025 9.41002278 -0.18451025 14 1 C13.34 1.66 12.68 2.32 12 3 C11.54188325 4.97235333 11.54188325 4.97235333 11.375 7.125 C11.25125 8.40375 11.1275 9.6825 11 11 C10.34 10.67 9.68 10.34 9 10 C9 9.01 9 8.02 9 7 C5.41672247 5.99782936 5.41672247 5.99782936 2 7 C-4.49530495 7.42360684 -10.61382283 6.1480768 -17 5 C-17 9.62 -17 14.24 -17 19 C-17.33 19 -17.66 19 -18 19 C-18.06058594 18.24074219 -18.12117188 17.48148438 -18.18359375 16.69921875 C-18.26738281 15.70535156 -18.35117188 14.71148437 -18.4375 13.6875 C-18.51871094 12.70136719 -18.59992188 11.71523437 -18.68359375 10.69921875 C-18.91812559 7.90624401 -18.91812559 7.90624401 -20 5 C-16.40412047 2.70850814 -13.680018 2.8856865 -9.5 3.25 C-8.3759375 3.33765625 -7.251875 3.4253125 -6.09375 3.515625 C-3.27302871 3.95725308 -1.42600506 4.54915383 1 6 C0.67 4.02 0.34 2.04 0 0 Z " fill="#A50BE7" transform="translate(105,59)"/>
<path d="M0 0 C2.64 0 5.28 0 8 0 C9.33257403 10.55808656 9.33257403 10.55808656 8 15 C7.34 15 6.68 15 6 15 C6 15.66 6 16.32 6 17 C5.34 17 4.68 17 4 17 C4 16.34 4 15.68 4 15 C3.01 15.33 2.02 15.66 1 16 C0 15 0 15 -0.09765625 11.62109375 C-0.09098369 10.22652923 -0.07902532 8.83198257 -0.0625 7.4375 C-0.05798828 6.72658203 -0.05347656 6.01566406 -0.04882812 5.28320312 C-0.03700864 3.52209987 -0.01907263 1.76103964 0 0 Z " fill="#A708EA" transform="translate(93,116)"/>
<path d="M0 0 C5.21671153 0.66329322 7.17251434 2.59586363 10.4140625 6.56640625 C14.72131959 13.175818 15.65242534 20.5653521 14.64453125 28.28515625 C13.11407967 34.73160382 10.59980687 40.27475535 5 44 C5.33 42.35 5.66 40.7 6 39 C6.66 39 7.32 39 8 39 C7.938125 38.236875 7.87625 37.47375 7.8125 36.6875 C8 34 8 34 9.48681641 32.58764648 C11.39182997 30.5888883 11.3855223 29.63126535 11.3984375 26.91015625 C11.40230469 26.12576172 11.40617188 25.34136719 11.41015625 24.53320312 C11.39855469 23.71787109 11.38695312 22.90253906 11.375 22.0625 C11.38660156 21.25103516 11.39820313 20.43957031 11.41015625 19.60351562 C11.38789798 15.08137626 11.24145817 12.42153918 8 9 C8 8.34 8 7.68 8 7 C6.02 6.34 4.04 5.68 2 5 C2 4.01 2 3.02 2 2 C1.34 2 0.68 2 0 2 C0 1.34 0 0.68 0 0 Z " fill="#B755DD" transform="translate(123,105)"/>
<path d="M0 0 C0.91136719 -0.01611328 1.82273437 -0.03222656 2.76171875 -0.04882812 C8.45715346 -0.05293739 12.47025528 0.592467 17.5 3.3125 C18.16 3.9725 18.82 4.6325 19.5 5.3125 C19.17123696 8.61354928 17.9023397 10.29703173 15.5625 12.5625 C15.03785156 13.08328125 14.51320312 13.6040625 13.97265625 14.140625 C12.5 15.3125 12.5 15.3125 10.5 15.3125 C10.5 13.6625 10.5 12.0125 10.5 10.3125 C11.82 10.6425 13.14 10.9725 14.5 11.3125 C14.83 9.0025 15.16 6.6925 15.5 4.3125 C3.79020437 2.03559529 -8.69004787 3.27912919 -20.5 4.3125 C-14.04332386 0.00804924 -7.53393261 -0.0266405 0 0 Z " fill="#BC5DE2" transform="translate(86.5,25.6875)"/>
<path d="M0 0 C0.33 0.66 0.66 1.32 1 2 C5.455 1.505 5.455 1.505 10 1 C4.64814161 7.49868518 -3.7196877 11.72142237 -12 13 C-11.67 12.01 -11.34 11.02 -11 10 C-12.32 9.67 -13.64 9.34 -15 9 C-13.783125 8.773125 -12.56625 8.54625 -11.3125 8.3125 C-7.02156987 7.25685524 -4.88227437 5.39091103 -2 2 C-1.34 1.34 -0.68 0.68 0 0 Z " fill="#B33EE3" transform="translate(118,148)"/>
<path d="M0 0 C3.5 3.5 3.5 3.5 7 7 C1.375 11 1.375 11 -2 11 C-1.67 9.68 -1.34 8.36 -1 7 C-10.65386332 4.53518383 -19.04558208 3.59153604 -29 4 C-22.48747658 0.26330624 -14.1820881 0.4386765 -7 2 C-6.67 2.33 -6.34 2.66 -6 3 C-4.33382885 3.04063832 -2.66611905 3.042721 -1 3 C-0.67 2.01 -0.34 1.02 0 0 Z " fill="#B039E3" transform="translate(90,35)"/>
<path d="M0 0 C2.97 0.99 5.94 1.98 9 3 C8.375 5.875 8.375 5.875 7 9 C3.9375 10.25 3.9375 10.25 1 11 C0.67 11.66 0.34 12.32 0 13 C0.66 13 1.32 13 2 13 C2 13.66 2 14.32 2 15 C1.01 15.33 0.02 15.66 -1 16 C-1 15.34 -1 14.68 -1 14 C-1.66 14 -2.32 14 -3 14 C-3.33 12.02 -3.66 10.04 -4 8 C-2.35 7.34 -0.7 6.68 1 6 C0.649375 5.38125 0.29875 4.7625 -0.0625 4.125 C-0.371875 3.42375 -0.68125 2.7225 -1 2 C-0.67 1.34 -0.34 0.68 0 0 Z " fill="#A609EA" transform="translate(49,81)"/>
<path d="M0 0 C0.66 0.33 1.32 0.66 2 1 C1.48824219 1.39832031 0.97648437 1.79664063 0.44921875 2.20703125 C-1.26194505 3.91030636 -1.26194505 3.91030636 -0.85546875 6.26171875 C-0.63503906 7.06222656 -0.41460937 7.86273438 -0.1875 8.6875 C0.02519531 9.49574219 0.23789062 10.30398437 0.45703125 11.13671875 C0.72580078 12.05904297 0.72580078 12.05904297 1 13 C-0.6210103 13.69685498 -2.24696066 14.38222861 -3.875 15.0625 C-4.77992187 15.44535156 -5.68484375 15.82820313 -6.6171875 16.22265625 C-9 17 -9 17 -11 16 C-9.6020749 11.93064734 -7.66821145 9.06055399 -4.9375 5.75 C-4.22464844 4.87859375 -3.51179688 4.0071875 -2.77734375 3.109375 C-1.88187356 2.04661917 -0.98267919 0.98267919 0 0 Z " fill="#B330E8" transform="translate(39,45)"/>
<path d="M0 0 C5.61 0 11.22 0 17 0 C17 3.3 17 6.6 17 10 C15.23358317 10.6987693 13.46167336 11.38366583 11.6875 12.0625 C10.70136719 12.44535156 9.71523438 12.82820312 8.69921875 13.22265625 C6 14 6 14 3 13 C5.31 12.34 7.62 11.68 10 11 C10 10.34 10 9.68 10 9 C11.65 9 13.3 9 15 9 C15 7.02 15 5.04 15 3 C10.05 3 5.1 3 0 3 C0 2.01 0 1.02 0 0 Z " fill="#BB61DD" transform="translate(48,152)"/>
<path d="M0 0 C1.14889133 3.93905597 1.52582695 7.93565958 2 12 C2.66 10.02 3.32 8.04 4 6 C4.33 6 4.66 6 5 6 C5.06910334 9.45516719 5.06305059 12.65672457 4.4375 16.0625 C3.95556761 19.29833177 4.31817522 21.81815102 5 25 C0.62342558 21.52892373 -1.0100291 17.36580867 -2 12 C-1.99411365 7.87366677 -1.86619581 3.73239162 0 0 Z " fill="#AA2DE1" transform="translate(27,62)"/>
<path d="M0 0 C0 0.66 0 1.32 0 2 C-1.65 2.33 -3.3 2.66 -5 3 C-5.33 5.31 -5.66 7.62 -6 10 C-8.31 10.66 -10.62 11.32 -13 12 C-13.33 11.34 -13.66 10.68 -14 10 C-14.99 9.34 -15.98 8.68 -17 8 C-15.41779413 7.03980636 -13.83418669 6.08192202 -12.25 5.125 C-10.92742188 4.32449219 -10.92742188 4.32449219 -9.578125 3.5078125 C-3.58031088 0 -3.58031088 0 0 0 Z " fill="#BE60E5" transform="translate(66,30)"/>
<path d="M0 0 C0.66 0.33 1.32 0.66 2 1 C-0.08877852 9.41479346 -4.47970494 16.24040603 -11 22 C-11.66 22 -12.32 22 -13 22 C-13 19.36 -13 16.72 -13 14 C-12.67 14.99 -12.34 15.98 -12 17 C-11.01 16.67 -10.02 16.34 -9 16 C-8.67 15.34 -8.34 14.68 -8 14 C-7.34 14.33 -6.68 14.66 -6 15 C-5.7834375 14.1028125 -5.7834375 14.1028125 -5.5625 13.1875 C-5.1127561 11.43849596 -4.57107659 9.71322977 -4 8 C-3.34 8 -2.68 8 -2 8 C-2.061875 6.8553125 -2.061875 6.8553125 -2.125 5.6875 C-2 3 -2 3 0 0 Z " fill="#BB5CE2" transform="translate(103,123)"/>
<path d="M0 0 C6.52307692 0.49230769 6.52307692 0.49230769 8.9375 3.0625 C9.288125 3.701875 9.63875 4.34125 10 5 C9.01 6.485 9.01 6.485 8 8 C3.31261335 7.09276387 -1.34193744 6.0452733 -6 5 C-6 4.34 -6 3.68 -6 3 C-4.02 2.67 -2.04 2.34 0 2 C0 1.34 0 0.68 0 0 Z " fill="#A807E8" transform="translate(107,103)"/>
<path d="M0 0 C1.9375 0.375 1.9375 0.375 4 1 C4.33 1.66 4.66 2.32 5 3 C5.99 3 6.98 3 8 3 C8.33 4.32 8.66 5.64 9 7 C8.01 7.33 7.02 7.66 6 8 C7.32 9.32 8.64 10.64 10 12 C9.01 12.495 9.01 12.495 8 13 C6.70391053 12.06862408 5.41328368 11.1296434 4.125 10.1875 C3.40570313 9.66542969 2.68640625 9.14335938 1.9453125 8.60546875 C0 7 0 7 -2 4 C-1.67 3.67 -1.34 3.34 -1 3 C-0.67 2.01 -0.34 1.02 0 0 Z " fill="#AE2BE7" transform="translate(34,83)"/>
<path d="M0 0 C0.33 0.99 0.66 1.98 1 3 C0.67 3.66 0.34 4.32 0 5 C0.598125 5.12375 1.19625 5.2475 1.8125 5.375 C4 6 4 6 7 8 C3.37 8 -0.26 8 -4 8 C-4 8.66 -4 9.32 -4 10 C-6.375 10.625 -6.375 10.625 -9 11 C-9.66 10.34 -10.32 9.68 -11 9 C-10.37351562 8.60167969 -9.74703125 8.20335938 -9.1015625 7.79296875 C-8.28429687 7.26316406 -7.46703125 6.73335938 -6.625 6.1875 C-5.81289062 5.66542969 -5.00078125 5.14335938 -4.1640625 4.60546875 C-1.76649759 3.01562803 -1.76649759 3.01562803 0 0 Z " fill="#B241E3" transform="translate(111,95)"/>
<path d="M0 0 C1.98 0.66 3.96 1.32 6 2 C6.02712351 4.39591038 6.0468982 6.79150957 6.0625 9.1875 C6.07087891 9.86103516 6.07925781 10.53457031 6.08789062 11.22851562 C6.10606538 14.95434131 5.89299392 18.3788042 5 22 C2.525 21.01 2.525 21.01 0 20 C0.33 19.34 0.66 18.68 1 18 C1.99 18 2.98 18 4 18 C3.91321237 15.70760939 3.80504727 13.4160193 3.6875 11.125 C3.62949219 9.84882812 3.57148437 8.57265625 3.51171875 7.2578125 C3.34285156 6.18273437 3.17398438 5.10765625 3 4 C2.01 3.34 1.02 2.68 0 2 C0 1.34 0 0.68 0 0 Z " fill="#BB68DB" transform="translate(62,86)"/>
<path d="M0 0 C0.33 0 0.66 0 1 0 C2.14836806 8.52748563 2.87500152 15.30966498 -1.48046875 23.046875 C-3.11185441 25.14377174 -4.80721195 26.51622907 -7 28 C-6.67 26.35 -6.34 24.7 -6 23 C-5.34 23 -4.68 23 -4 23 C-4.061875 22.236875 -4.12375 21.47375 -4.1875 20.6875 C-4.0946875 19.3571875 -4.0946875 19.3571875 -4 18 C-3.5153125 17.608125 -3.030625 17.21625 -2.53125 16.8125 C-0.15884214 14.00434376 -0.42762459 10.83531257 -0.3125 7.3125 C-0.27833984 6.61060547 -0.24417969 5.90871094 -0.20898438 5.18554688 C-0.12670053 3.45758613 -0.0616676 1.72881928 0 0 Z " fill="#AD42DA" transform="translate(135,121)"/>
<path d="M0 0 C2.61959624 2.61959624 2.28856227 4.54853793 2.32226562 8.12109375 C2.31743164 9.29865234 2.31743164 9.29865234 2.3125 10.5 C2.32861328 11.28503906 2.34472656 12.07007813 2.36132812 12.87890625 C2.36328125 15.15625 2.36328125 15.15625 2 19 C1.01 19.66 0.02 20.32 -1 21 C-1.33 21.99 -1.66 22.98 -2 24 C-2.66 24 -3.32 24 -4 24 C-3.79503906 23.27296875 -3.59007813 22.5459375 -3.37890625 21.796875 C-1.42795109 14.51579832 -0.38686613 7.52387929 0 0 Z " fill="#9D2ACC" transform="translate(123,124)"/>
<path d="M0 0 C4.28806873 0.47645208 6.26647487 1.65902484 9 5 C9 5.66 9 6.32 9 7 C4.45194365 7.17835515 1.1205746 6.99785435 -3 5 C-2.34 4.67 -1.68 4.34 -1 4 C-0.34786708 1.97536745 -0.34786708 1.97536745 0 0 Z " fill="#A904EC" transform="translate(39,158)"/>
<path d="M0 0 C1.14726563 0.08765625 2.29453125 0.1753125 3.4765625 0.265625 C6.375 0.75 6.375 0.75 8.375 2.75 C3.06426324 4.5932897 -2.25988803 2.74137939 -7.625 1.75 C-7.625 6.37 -7.625 10.99 -7.625 15.75 C-7.955 15.75 -8.285 15.75 -8.625 15.75 C-8.68558594 14.99074219 -8.74617188 14.23148438 -8.80859375 13.44921875 C-8.89238281 12.45535156 -8.97617188 11.46148437 -9.0625 10.4375 C-9.14371094 9.45136719 -9.22492188 8.46523437 -9.30859375 7.44921875 C-9.54312559 4.65624401 -9.54312559 4.65624401 -10.625 1.75 C-7.00366772 -0.56907979 -4.21164058 -0.3612694 0 0 Z " fill="#C764E9" transform="translate(95.625,62.25)"/>
<path d="M0 0 C1 2 1 2 1 5 C1.33 5 1.66 5 2 5 C1.67 10.61 1.34 16.22 1 22 C0.67 22 0.34 22 0 22 C-0.03738281 21.43152344 -0.07476562 20.86304687 -0.11328125 20.27734375 C-0.4575862 16.23344837 -0.88565782 12.85496639 -2.6875 9.1875 C-4 6 -4 6 -3.3125 3.6875 C-2 2 -2 2 0 0 Z " fill="#A015DA" transform="translate(41,45)"/>
<path d="M0 0 C0.33 0 0.66 0 1 0 C2.12998844 9.34258296 2.09908936 18.60853097 2 28 C1.01 28.33 0.02 28.66 -1 29 C-0.67 19.43 -0.34 9.86 0 0 Z " fill="#BD62E0" transform="translate(71,129)"/>
<path d="M0 0 C0.66 0.33 1.32 0.66 2 1 C0.625 2.5 0.625 2.5 -1 4 C-1.66 4 -2.32 4 -3 4 C-3 4.66 -3 5.32 -3 6 C-0.69 6 1.62 6 4 6 C0.57905758 8.28062828 -0.68187222 8.21925007 -4.6875 8.125 C-6.17830078 8.09792969 -6.17830078 8.09792969 -7.69921875 8.0703125 C-8.45847656 8.04710938 -9.21773437 8.02390625 -10 8 C-8.7820245 4.34607349 -7.85603494 4.04168301 -4.5625 2.25 C-3.75941406 1.80140625 -2.95632812 1.3528125 -2.12890625 0.890625 C-1.07509766 0.44976562 -1.07509766 0.44976562 0 0 Z " fill="#C174E0" transform="translate(70,57)"/>
<path d="M0 0 C0.33 0.99 0.66 1.98 1 3 C0.15179688 2.7834375 -0.69640625 2.566875 -1.5703125 2.34375 C-10.32514333 0.26568026 -17.99202874 -0.369628 -27 0 C-19.42769212 -4.0863776 -7.59899871 -4.41232183 0 0 Z " fill="#CC77EB" transform="translate(88,39)"/>
<path d="M0 0 C0.33 0 0.66 0 1 0 C0.95359375 0.89203125 0.9071875 1.7840625 0.859375 2.703125 C0.82328125 3.87359375 0.7871875 5.0440625 0.75 6.25 C0.70359375 7.41015625 0.6571875 8.5703125 0.609375 9.765625 C1.06964494 13.57666013 2.05148444 14.65511755 5 17 C4.67 17.66 4.34 18.32 4 19 C1.36 17.68 -1.28 16.36 -4 15 C-4 14.34 -4 13.68 -4 13 C-4.99 12.67 -5.98 12.34 -7 12 C-4.69 12 -2.38 12 0 12 C0 8.04 0 4.08 0 0 Z " fill="#C467E7" transform="translate(42,55)"/>
<path d="M0 0 C1.32 0.33 2.64 0.66 4 1 C3.42110619 4.28754511 2.45171589 5.93672495 0.0625 8.25 C-0.46214844 8.77078125 -0.98679687 9.2915625 -1.52734375 9.828125 C-3 11 -3 11 -5 11 C-5 9.35 -5 7.7 -5 6 C-3.68 6.33 -2.36 6.66 -1 7 C-0.67 4.69 -0.34 2.38 0 0 Z " fill="#B54DE1" transform="translate(102,30)"/>
<path d="M0 0 C1.625 1.25 1.625 1.25 2.625 3.25 C1.20961283 3.58872513 -0.20737963 3.92074624 -1.625 4.25 C-2.41390625 4.435625 -3.2028125 4.62125 -4.015625 4.8125 C-6.375 5.25 -6.375 5.25 -10.375 5.25 C-10.045 3.93 -9.715 2.61 -9.375 1.25 C-3.01414373 -0.95183486 -3.01414373 -0.95183486 0 0 Z " fill="#A809EB" transform="translate(70.375,31.75)"/>
<path d="M0 0 C2 3 2 3 2 6 C3.32 6.33 4.64 6.66 6 7 C6.625 9.375 6.625 9.375 7 12 C6.34 12.66 5.68 13.32 5 14 C4.608125 13.0925 4.21625 12.185 3.8125 11.25 C1.33209208 6.80237201 -1.83176333 4.77882445 -6 2 C-4.02 1.34 -2.04 0.68 0 0 Z " fill="#BE5BE4" transform="translate(109,64)"/>
<path d="M0 0 C4.875 1.875 4.875 1.875 6 3 C6.04063832 4.66617115 6.042721 6.33388095 6 8 C5.34 7.67 4.68 7.34 4 7 C3.67 8.65 3.34 10.3 3 12 C2.01 12 1.02 12 0 12 C0.08378906 11.38511719 0.16757813 10.77023438 0.25390625 10.13671875 C0.35574219 9.32847656 0.45757812 8.52023438 0.5625 7.6875 C0.66691406 6.88699219 0.77132812 6.08648437 0.87890625 5.26171875 C1.14755178 2.83182884 1.14755178 2.83182884 0 0 Z " fill="#AE2DE2" transform="translate(119,60)"/>
<path d="M0 0 C6.875 0.875 6.875 0.875 8 2 C10.84087552 2.28318854 13.68165215 2.44850213 16.53125 2.62109375 C17.3459375 2.74613281 18.160625 2.87117187 19 3 C19.33 3.66 19.66 4.32 20 5 C15.12283443 6.16193474 11.93504629 5.72299211 7.1875 4.1875 C6.04667969 3.83042969 4.90585937 3.47335938 3.73046875 3.10546875 C1 2 1 2 0 0 Z " fill="#BF5FE4" transform="translate(21,160)"/>
<path d="M0 0 C3.88805114 3.24004262 4.98255954 6.08237111 6 11 C6.125 14.4375 6.125 14.4375 6 17 C5.34 17.33 4.68 17.66 4 18 C3.34 13.38 2.68 8.76 2 4 C1.34 4 0.68 4 0 4 C0 2.68 0 1.36 0 0 Z " fill="#BC65E0" transform="translate(125,64)"/>
<path d="M0 0 C0.83273791 3.03455341 1.29812537 5.99634279 1.625 9.125 C1.76808594 10.42824219 1.76808594 10.42824219 1.9140625 11.7578125 C2 14 2 14 1 16 C0.67 16.99 0.34 17.98 0 19 C-2.18453228 13.08891266 -2.12045681 8.19080681 -1 2 C-0.67 1.34 -0.34 0.68 0 0 Z " fill="#CC72ED" transform="translate(27,62)"/>
<path d="M0 0 C0.66 0 1.32 0 2 0 C2 1.65 2 3.3 2 5 C6.29 5 10.58 5 15 5 C15 5.33 15 5.66 15 6 C8.73 6 2.46 6 -4 6 C-2.68 4.02 -1.36 2.04 0 0 Z " fill="#A13ECF" transform="translate(69,158)"/>
<path d="M0 0 C0.66 0.33 1.32 0.66 2 1 C1.67 1.66 1.34 2.32 1 3 C1.99 3.33 2.98 3.66 4 4 C-0.95 5.485 -0.95 5.485 -6 7 C-5.67 6.01 -5.34 5.02 -5 4 C-6.32 3.67 -7.64 3.34 -9 3 C-8.43410156 2.86722656 -7.86820312 2.73445312 -7.28515625 2.59765625 C-6.18494141 2.33275391 -6.18494141 2.33275391 -5.0625 2.0625 C-4.33160156 1.88847656 -3.60070312 1.71445313 -2.84765625 1.53515625 C-1.00030102 1.16112431 -1.00030102 1.16112431 0 0 Z " fill="#C87DE2" transform="translate(112,154)"/>
<path d="M0 0 C4.29 0 8.58 0 13 0 C13 2 13 2 11.5 3.625 C11.005 4.07875 10.51 4.5325 10 5 C7.525 4.01 7.525 4.01 5 3 C5 2.34 5 1.68 5 1 C3.35 1 1.7 1 0 1 C0 0.67 0 0.34 0 0 Z " fill="#A223DC" transform="translate(109,103)"/>
<path d="M0 0 C0 3.63 0 7.26 0 11 C-0.99 11 -1.98 11 -3 11 C-3.66 9.68 -4.32 8.36 -5 7 C-4.34 7 -3.68 7 -3 7 C-3.226875 6.401875 -3.45375 5.80375 -3.6875 5.1875 C-3.790625 4.465625 -3.89375 3.74375 -4 3 C-1.64285714 0 -1.64285714 0 0 0 Z " fill="#AA02EA" transform="translate(65,91)"/>
<path d="M0 0 C0 1.65 0 3.3 0 5 C-0.66 5 -1.32 5 -2 5 C-2 4.34 -2 3.68 -2 3 C-5.47917182 5.31944788 -6.29429766 7.26369964 -8 11 C-9.46726798 7.18510326 -8.43336419 4.70988378 -7 1 C-6.34 1.33 -5.68 1.66 -5 2 C-0.6 0 -0.6 0 0 0 Z " fill="#A411E0" transform="translate(36,59)"/>
<path d="M0 0 C7.875 0.875 7.875 0.875 9 2 C9.1875 5.4375 9.1875 5.4375 9 9 C8.34 9.66 7.68 10.32 7 11 C5.5216774 8.04335481 5.93967217 5.25770263 6 2 C3.03 1.505 3.03 1.505 0 1 C0 0.67 0 0.34 0 0 Z " fill="#B347DD" transform="translate(95,114)"/>
<path d="M0 0 C0 0.99 0 1.98 0 3 C1.32 3.66 2.64 4.32 4 5 C-0.29 5 -4.58 5 -9 5 C-4 0 -4 0 0 0 Z " fill="#C582E0" transform="translate(100,105)"/>
<path d="M0 0 C0.99 0 1.98 0 3 0 C2.42365861 4.75481646 0.44931479 7.97048212 -2 12 C-2.66 12 -3.32 12 -4 12 C-4 11.01 -4 10.02 -4 9 C-3.34 9 -2.68 9 -2 9 C-2.33 7.68 -2.66 6.36 -3 5 C-2.01 5 -1.02 5 0 5 C0 3.35 0 1.7 0 0 Z " fill="#B34BDE" transform="translate(127,82)"/>
<path d="M0 0 C1.06546953 3.1964086 1.07427838 5.65747276 1 9 C-2.75 10.125 -2.75 10.125 -5 9 C-3.7508258 5.54074837 -2.32472205 2.85306797 0 0 Z " fill="#B74FE4" transform="translate(33,52)"/>
<path d="M0 0 C6.435 2.97 6.435 2.97 13 6 C13 6.33 13 6.66 13 7 C4.86265342 6.65225015 4.86265342 6.65225015 1.4375 4.0625 C0 2 0 2 0 0 Z " fill="#C473E5" transform="translate(33,145)"/>
<path d="M0 0 C0 0.66 0 1.32 0 2 C-1.175625 2.0928125 -1.175625 2.0928125 -2.375 2.1875 C-3.24125 2.455625 -4.1075 2.72375 -5 3 C-5.70211894 4.65204456 -6.36971413 6.31923769 -7 8 C-9.125 8.8125 -9.125 8.8125 -11 9 C-10.34 7.68 -9.68 6.36 -9 5 C-8.34 5 -7.68 5 -7 5 C-7 4.01 -7 3.02 -7 2 C-4.35261084 0.5393715 -3.10551666 0 0 0 Z " fill="#B43EE2" transform="translate(66,30)"/>
<path d="M0 0 C0.33 1.32 0.66 2.64 1 4 C-0.76641683 4.6987693 -2.53832664 5.38366583 -4.3125 6.0625 C-5.79169922 6.63677734 -5.79169922 6.63677734 -7.30078125 7.22265625 C-10 8 -10 8 -13 7 C-10.69 6.34 -8.38 5.68 -6 5 C-6 4.34 -6 3.68 -6 3 C-4.02 3 -2.04 3 0 3 C0 2.01 0 1.02 0 0 Z " fill="#BE6AE2" transform="translate(64,158)"/>
<path d="M0 0 C0.33 0.99 0.66 1.98 1 3 C0.67 3.66 0.34 4.32 0 5 C0.598125 5.12375 1.19625 5.2475 1.8125 5.375 C4 6 4 6 7 8 C3.7 8 0.4 8 -3 8 C-2.34 7.67 -1.68 7.34 -1 7 C-1 6.34 -1 5.68 -1 5 C-1.66 4.67 -2.32 4.34 -3 4 C-2.01 2.68 -1.02 1.36 0 0 Z " fill="#CB6FEA" transform="translate(111,95)"/>
<path d="M0 0 C4.23830976 2.82553984 3.97715348 5.12180888 5 10 C1.63279613 8.60667426 0.0140476 7.0210714 -2 4 C-1.67 3.67 -1.34 3.34 -1 3 C-0.67 2.01 -0.34 1.02 0 0 Z " fill="#B845E5" transform="translate(34,83)"/>
<path d="M0 0 C2.29744125 2.29744125 3.17824769 3.86240027 4 7 C2.625 9.3125 2.625 9.3125 1 11 C-1 8 -1 8 -2 6 C-1.39421747 3.98072489 -0.73080266 1.97746603 0 0 Z " fill="#B943E9" transform="translate(42,43)"/>
<path d="M0 0 C1.9375 0.75 1.9375 0.75 3.9375 2.75 C1.29291621 4.07229189 -0.74011301 3.84677194 -3.6875 3.8125 C-4.69039063 3.80347656 -5.69328125 3.79445312 -6.7265625 3.78515625 C-7.49742188 3.77355469 -8.26828125 3.76195312 -9.0625 3.75 C-8.1653125 3.316875 -8.1653125 3.316875 -7.25 2.875 C-1.34315395 -0.16280654 -1.34315395 -0.16280654 0 0 Z " fill="#AD3ADB" transform="translate(93.0625,160.25)"/>
<path d="M0 0 C0.99 0.99 1.98 1.98 3 3 C3 4.32 3 5.64 3 7 C2.01 7.66 1.02 8.32 0 9 C-0.33 9.99 -0.66 10.98 -1 12 C-1.66 12 -2.32 12 -3 12 C-2.01 8.04 -1.02 4.08 0 0 Z " fill="#B953E2" transform="translate(122,136)"/>
<path d="M0 0 C0.33 0 0.66 0 1 0 C1 4.62 1 9.24 1 14 C-0.65 14.33 -2.3 14.66 -4 15 C-4.33 14.34 -4.66 13.68 -5 13 C-3.35 12.67 -1.7 12.34 0 12 C0 8.04 0 4.08 0 0 Z " fill="#9F17DC" transform="translate(65,90)"/>
<path d="M0 0 C0.33 0.99 0.66 1.98 1 3 C2.32 3 3.64 3 5 3 C4.1875 4.9375 4.1875 4.9375 3 7 C2.01 7.33 1.02 7.66 0 8 C0 5.36 0 2.72 0 0 Z " fill="#C980E1" transform="translate(90,137)"/>
<path d="M0 0 C0.66 0 1.32 0 2 0 C2 0.66 2 1.32 2 2 C3.32 2 4.64 2 6 2 C5.34 4.64 4.68 7.28 4 10 C2.26337666 6.77484237 1.1094072 3.48670834 0 0 Z " fill="#BD51E4" transform="translate(119,118)"/>
<path d="M0 0 C1.65 0.33 3.3 0.66 5 1 C4.67 1.66 4.34 2.32 4 3 C3.01 3 2.02 3 1 3 C1.66 3.33 2.32 3.66 3 4 C3 4.66 3 5.32 3 6 C1.68 5.67 0.36 5.34 -1 5 C-0.67 3.35 -0.34 1.7 0 0 Z " fill="#A30FE6" transform="translate(84,33)"/>
<path d="M0 0 C0.33 0.66 0.66 1.32 1 2 C3.01669827 3.13350534 3.01669827 3.13350534 5 4 C2.69 4.33 0.38 4.66 -2 5 C-1.34 3.35 -0.68 1.7 0 0 Z " fill="#B648DC" transform="translate(115,152)"/>
<path d="M0 0 C0.66 0.66 1.32 1.32 2 2 C4.58354218 2.16687448 4.58354218 2.16687448 7 2 C7 2.66 7 3.32 7 4 C2.545 4.495 2.545 4.495 -2 5 C-2 4.34 -2 3.68 -2 3 C-1.34 3 -0.68 3 0 3 C0 2.01 0 1.02 0 0 Z " fill="#A114DD" transform="translate(121,145)"/>
<path d="M0 0 C2 1 2 1 3 2 C3 2.66 3 3.32 3 4 C2.34 4 1.68 4 1 4 C0.67 4.99 0.34 5.98 0 7 C-0.99 6.01 -1.98 5.02 -3 4 C-2.01 2.68 -1.02 1.36 0 0 Z " fill="#BC44E7" transform="translate(28,141)"/>
<path d="M0 0 C1.32 0.33 2.64 0.66 4 1 C4 1.99 4 2.98 4 4 C3.01 4 2.02 4 1 4 C0.67 4.99 0.34 5.98 0 7 C0 4.69 0 2.38 0 0 Z " fill="#AB01ED" transform="translate(38,82)"/>
<path d="M0 0 C1.32 0.66 2.64 1.32 4 2 C3.01 2.33 2.02 2.66 1 3 C0.67 3.66 0.34 4.32 0 5 C-1.32 4.67 -2.64 4.34 -4 4 C-4 3.34 -4 2.68 -4 2 C-2.68 2 -1.36 2 0 2 C0 1.34 0 0.68 0 0 Z " fill="#A50EDE" transform="translate(43,72)"/>
<path d="M0 0 C0.33 0.99 0.66 1.98 1 3 C1.99 3 2.98 3 4 3 C4 3.66 4 4.32 4 5 C2.35 5.66 0.7 6.32 -1 7 C-0.67 4.69 -0.34 2.38 0 0 Z " fill="#A809ED" transform="translate(123,65)"/>
<path d="M0 0 C0.91058531 3.07322544 1.08886184 5.80097361 1 9 C-0.5625 7.8125 -0.5625 7.8125 -2 6 C-1.57894737 1.57894737 -1.57894737 1.57894737 0 0 Z " fill="#C77BE2" transform="translate(18,150)"/>
<path d="M0 0 C2.97 0.33 5.94 0.66 9 1 C8.67 1.99 8.34 2.98 8 4 C5.36 3.01 2.72 2.02 0 1 C0 0.67 0 0.34 0 0 Z " fill="#BC64E1" transform="translate(106,110)"/>
</svg>
