<?xml version="1.0" encoding="UTF-8"?>
<svg version="1.1" xmlns="http://www.w3.org/2000/svg" width="90" height="64">
<path d="M0 0 C3.87474457 -0.11668214 7.74903396 -0.18741231 11.625 -0.25 C13.26662109 -0.30027344 13.26662109 -0.30027344 14.94140625 -0.3515625 C21.29696834 -0.42859962 25.20112016 -0.33498812 30 4 C33.44227438 7.9012443 33.32377163 11.62407039 33.30078125 16.59765625 C32.98365957 19.13051122 32.27224682 20.80524751 31 23 C31.66 23.825 32.32 24.65 33 25.5 C35.51646909 29.29709214 35.70092583 32.56376059 35 37 C33.74670437 41.0732108 32.29195815 43.13242535 28.62109375 45.15234375 C23.21936766 47.73174425 17.93867357 47.47870227 12.0625 47.3125 C10.4837207 47.29799805 10.4837207 47.29799805 8.87304688 47.28320312 C1.16880836 47.16880836 1.16880836 47.16880836 0 46 C-0.09295815 44.55710213 -0.11746513 43.10970215 -0.11352539 41.66381836 C-0.11344986 40.7429393 -0.11337433 39.82206024 -0.11329651 38.87327576 C-0.10813522 37.87224319 -0.10297394 36.87121063 -0.09765625 35.83984375 C-0.0962413 34.82024063 -0.09482635 33.80063751 -0.09336853 32.75013733 C-0.08775097 29.47922893 -0.0751955 26.20838787 -0.0625 22.9375 C-0.05748726 20.72591244 -0.05292396 18.51432382 -0.04882812 16.30273438 C-0.03777584 10.86846643 -0.02102063 5.43423803 0 0 Z M12 10 C10.64560332 12.70879335 10.93498549 15.00933268 11 18 C12.62418745 18.08090971 14.24951745 18.13914995 15.875 18.1875 C16.77992187 18.22230469 17.68484375 18.25710937 18.6171875 18.29296875 C19.40351562 18.19628906 20.18984375 18.09960938 21 18 C23.28600028 15.29667695 23.28600028 15.29667695 22.6875 12.875 C22.15421514 11.01406147 22.15421514 11.01406147 21 10 C19.48071962 9.92820036 17.95832518 9.91607993 16.4375 9.9375 C15.19806641 9.95103516 15.19806641 9.95103516 13.93359375 9.96484375 C12.97646484 9.98224609 12.97646484 9.98224609 12 10 Z M11 28 C11 30.97 11 33.94 11 37 C12.77007714 37.08114106 14.54122098 37.13925505 16.3125 37.1875 C17.29863281 37.22230469 18.28476563 37.25710937 19.30078125 37.29296875 C22.04574389 37.24278108 22.04574389 37.24278108 23.85546875 35.48828125 C24.23316406 34.99714844 24.61085938 34.50601563 25 34 C23.88145414 30.27385847 23.88145414 30.27385847 21 28 C19.29297265 27.93003986 17.58331997 27.91559846 15.875 27.9375 C14.96492188 27.94652344 14.05484375 27.95554687 13.1171875 27.96484375 C12.06917969 27.98224609 12.06917969 27.98224609 11 28 Z " fill="#EBEBEB" transform="translate(49,10)"/>
<path d="M0 0 C3.04689184 2.99359344 3.32155057 4.76761087 3.46484375 9.06640625 C3.42359375 10.13890625 3.38234375 11.21140625 3.33984375 12.31640625 C0.03984375 12.31640625 -3.26015625 12.31640625 -6.66015625 12.31640625 C-7.32015625 10.66640625 -7.98015625 9.01640625 -8.66015625 7.31640625 C-9.93890625 7.13078125 -11.21765625 6.94515625 -12.53515625 6.75390625 C-13.25445313 6.64949219 -13.97375 6.54507812 -14.71484375 6.4375 C-16.74156292 6.14797655 -16.74156292 6.14797655 -18.66015625 7.31640625 C-18.33015625 8.96640625 -18.00015625 10.61640625 -17.66015625 12.31640625 C-16.63535156 12.6309375 -15.61054688 12.94546875 -14.5546875 13.26953125 C-13.19382912 13.70125184 -11.83316198 14.13357559 -10.47265625 14.56640625 C-9.79912109 14.77136719 -9.12558594 14.97632812 -8.43164062 15.1875 C-4.13512978 16.57076691 -0.99035953 18.14124036 2.33984375 21.31640625 C4.69234529 26.02140933 4.84940185 30.34082331 3.33984375 35.31640625 C0.44745242 39.96176202 -2.44338099 42.23658778 -7.5546875 43.84765625 C-13.97087361 45.27612069 -19.89893249 44.57863765 -25.66015625 41.31640625 C-30.50377993 36.88500586 -31.33499013 33.60295121 -31.66015625 27.31640625 C-28.03015625 27.31640625 -24.40015625 27.31640625 -20.66015625 27.31640625 C-20.00015625 28.96640625 -19.34015625 30.61640625 -18.66015625 32.31640625 C-13.88252987 33.33327671 -13.88252987 33.33327671 -9.22265625 32.37890625 C-8.70703125 32.02828125 -8.19140625 31.67765625 -7.66015625 31.31640625 C-7.66015625 29.99640625 -7.66015625 28.67640625 -7.66015625 27.31640625 C-8.82933594 26.95289062 -9.99851562 26.589375 -11.203125 26.21484375 C-12.75163834 25.70805756 -14.29979722 25.20018739 -15.84765625 24.69140625 C-16.61658203 24.45550781 -17.38550781 24.21960938 -18.17773438 23.9765625 C-23.69527695 22.12948816 -26.3882437 20.15756618 -29.66015625 15.31640625 C-30.90044142 11.59555074 -31.33244048 8.17637528 -30.66015625 4.31640625 C-27.40784164 0.13485889 -23.4905743 -2.7131647 -18.47265625 -4.43359375 C-11.46519582 -5.05647912 -5.55745745 -4.58980604 0 0 Z " fill="#E9E9E9" transform="translate(42.66015625,13.68359375)"/>
</svg>
